<svg width="400" height="551" viewBox="0 0 400 551" fill="none" xmlns="http://www.w3.org/2000/svg">
<g clip-path="url(#clip0_599_575)">
<path d="M153.247 12.1157L132.467 22.5006H129.87V18.1736H126.407L113.42 28.5585L90.9089 45.0013L77.9219 51.9245L73.5929 53.6554V48.4629L70.9955 51.9245L54.5453 73.5598L48.4847 83.9447L45.0215 96.0604L43.2899 97.7912L39.8267 96.0604H35.4977V102.118V118.561L29.4371 134.138L23.3765 151.447L20.7791 174.813V195.582L25.1081 223.276L28.5713 242.314L30.3029 253.565H22.5107L17.3159 255.296L6.06045 264.815L1.73145 285.585L4.32885 317.605L11.2553 339.24L23.3765 357.414L38.0951 369.53L52.8137 375.587L56.2769 392.03L61.4717 417.127L72.7271 438.762L98.7011 466.455L118.615 483.764L143.723 500.206V506.264L148.918 518.38L156.71 529.63L168.831 537.419L175.757 540.015L180.086 541.746L181.818 540.015L184.415 541.746L189.61 546.073H198.268H203.463L206.926 542.611H209.524L210.389 546.073L213.853 547.804L225.108 541.746L235.498 534.823H239.827L253.679 521.842L256.277 515.784L258.008 500.206L267.532 495.014L286.58 481.167L316.883 451.743L329.004 436.166L338.528 418.858L344.589 394.626L346.32 377.318L349.783 375.587L366.234 366.933L379.221 353.952L391.342 333.182L398.268 309.816V290.777V274.335L387.879 258.757L377.489 253.565H369.697L374.892 222.41L377.489 204.237V167.024V143.658L372.294 128.081L363.636 106.445L347.186 81.3485L359.307 77.8868V76.156L343.723 63.1749L316.017 44.1359L279.654 22.5006L261.472 12.1157L245.021 5.19247L224.242 1.73083H200.866L180.086 5.19247L153.247 12.1157Z" stroke="black" stroke-width="4"/>
</g>
<defs>
<clipPath id="clip0_599_575">
<rect width="400" height="550.4" fill="white"/>
</clipPath>
</defs>
</svg>
