<svg width="154" height="200" viewBox="0 0 154 200" fill="none" xmlns="http://www.w3.org/2000/svg">
<path d="M72.702 101.424L77.6447 100.35L81.298 99.2751L85.596 97.341L88.3897 95.6218L92.2579 92.8281L94.6218 90.6791L96.341 88.9599L97.8453 87.2407L99.9943 84.447L102.358 81.0086L104.292 77.5702L106.011 73.702L107.301 70.4785L108.59 65.7507L109.235 62.5272L109.88 59.5186L110.095 56.7249V54.5759V51.3524V48.1289L109.665 44.2607L109.235 41.6819L108.375 37.5989L107.516 34.8052L106.871 32.6562L106.011 30.7221L105.582 29.6476L104.722 27.7135L103.433 25.5645L102.788 24.49L101.499 22.341L99.9943 19.9771L98.2751 17.8281L96.341 15.4642L93.9771 13.5301L91.3983 11.3811L89.4642 10.0917L88.1748 9.01719L86.4556 7.72779L83.8768 6.4384L81.298 5.5788L78.5043 4.7192L75.7106 4.2894L72.0573 3.6447L71.4126 3.4298M135.883 197.054L137.602 196.195L138.676 195.55L139.536 195.12L139.966 194.691L140.395 193.616L140.61 192.542V191.037L140.395 184.805V183.086L140.181 181.797L139.966 180.077L139.536 177.499L139.106 174.705L138.676 172.771L138.032 170.192L137.387 168.043L136.312 165.034L134.808 160.951L133.519 157.728L132.229 154.719L130.94 151.925L129.006 148.702L126.642 145.479L123.848 141.825L121.699 138.817L118.261 135.163L115.682 132.585L112.458 129.146L109.235 126.352L104.722 123.129L100.209 120.765L95.0516 118.186L87.9599 115.607L81.9427 114.103L76.5702 113.458L67.7593 113.029L62.1719 112.814L56.1547 112.599H51.212L47.1289 112.694M47.1289 112.694L46.4842 112.814L43.6905 113.458L41.5415 113.888L37.4585 115.393L34.0201 116.897L29.937 119.261L26.9284 121.195L24.5645 122.914L22.2006 125.063L20.2665 126.997L18.5473 128.716L16.3983 131.295L14.4642 133.874L12.5301 136.883L10.8109 139.676L9.09169 142.9L7.80229 145.693L6.94269 148.272L6.08309 150.636L5.2235 152.57L4.149 156.009L3.5043 159.232L2.8596 163.315L2.4298 165.894L2.2149 168.688L2 171.696V174.275V176.209L2.2149 177.284L2.6447 178.788L3.2894 179.648L4.3639 180.292L5.86819 180.937L6.94269 181.152L81.0831 190.607L93.1175 192.112L101.713 193.186L114.178 194.476L122.344 195.55L126.212 196.195L129.65 196.625L132.014 196.84L134.378 197.269H136.097H137.387L138.676 196.84L141.9 195.335L145.123 193.831L148.562 192.327L149.636 191.682L150.281 191.037L151.355 189.963L152 188.673V187.384V185.235L151.785 181.367L151.57 177.284L151.14 173.415L150.066 168.258L148.562 162.67L147.057 158.158L145.768 155.149L144.693 152.355L142.115 147.628L140.181 144.404L138.032 140.966L135.023 136.883L130.94 132.155L128.146 129.361L123.848 125.493L119.55 122.054L115.037 119.046L111.169 117.327L107.301 115.393L104.077 114.318L101.499 113.458L100.209 113.029L98.2751 112.384L92.2579 111.524L86.8854 111.095L79.3639 110.665L72.4871 110.45C71.1261 110.378 68.361 110.235 68.1891 110.235C68.0172 110.235 65.8252 110.378 64.7507 110.45L60.4527 110.88C59.0201 111.095 56.1117 111.524 55.9398 111.524C55.7679 111.524 53.4327 111.668 52.2865 111.739L47.1289 112.694ZM63.8911 3.4298L67.1146 3L71.6275 3.2149L75.4957 3.6447L80.2235 4.2894L84.0917 4.7192L88.3897 5.5788L92.6877 6.4384L93.9771 7.08309L95.9112 7.94269L99.3496 9.44699L103.648 12.4556L106.226 14.3897L109.665 17.8281L111.599 19.9771L113.963 23.2006L116.327 27.0688L118.261 30.937L120.625 36.9542L121.484 41.2521L122.344 44.9054V46.4097L122.559 49.4183C122.63 50.2063 122.774 51.8252 122.774 51.9971C122.774 52.1691 122.774 53.5014 122.774 54.1461L122.559 57.5845L122.344 60.808L121.914 62.0974L120.41 68.3295L119.765 69.8338L117.831 75.2063L114.178 81.6533L112.888 83.3725L109.665 87.2407L107.731 89.1748L106.011 90.894L103.862 92.6132L101.284 94.3324L98.49 96.0516L94.8367 97.7708L90.9685 99.0602C89.4642 99.4183 86.4126 100.135 86.2407 100.135C86.0258 100.135 82.5874 100.564 82.3725 100.564C82.2006 100.564 79.2923 100.994 77.8596 101.209L72.4871 101.639H71.4126L68.404 101.854H65.8252L62.6017 101.424L59.808 100.779L56.5845 99.9198L53.5759 98.6304L50.9971 97.341L48.2034 95.8367L46.4842 94.5473L44.765 93.2579L42.8309 91.7536L41.3266 90.2493L38.3181 87.2407L37.0287 85.5215L35.5244 83.5874L34.0201 81.4384L32.7307 79.0745L31.6562 76.7106L30.5817 74.7765L29.7221 72.4126L28.6476 69.404L27.788 66.6103L27.1433 63.3868L26.7135 60.808L26.4986 58.2292L26.2837 55.4355V52.212V48.9885L26.4986 45.765L26.9284 43.8309L27.3582 40.8223L28.0029 37.8138L29.0774 34.1605L30.3668 31.3668L31.4413 28.5731L33.5903 24.49L35.7393 21.4814L38.1032 18.2579L40.6819 15.4642L44.1203 12.2407L47.7736 9.44699L51.6418 7.08309L54.6504 5.7937L59.5931 4.0745L63.8911 3.4298Z" stroke="black" stroke-opacity="0.1" stroke-width="4"/>
</svg>
