<svg width="30" height="30" viewBox="0 0 30 30" fill="none" xmlns="http://www.w3.org/2000/svg">
<path d="M15 6.00244C11.5069 6.00244 9.15815 7.52682 7.95252 10.5762C7.82752 10.8918 8.21315 11.1512 8.46252 10.9206C9.7344 9.74432 11.1638 9.35494 12.75 9.75119C13.8913 10.0362 14.7069 10.8643 15.61 11.7806C17.08 13.2724 18.7819 14.9999 22.5 14.9999C25.9931 14.9999 28.3425 13.4749 29.5475 10.4256C29.6725 10.1099 29.2869 9.85057 29.0375 10.0812C27.7656 11.2574 26.3363 11.6474 24.75 11.2512C23.6094 10.9662 22.7938 10.1381 21.8906 9.22182C20.42 7.72932 18.7175 6.00244 15 6.00244ZM7.50002 14.9999C4.0069 14.9999 1.65752 16.5249 0.452523 19.5743C0.327523 19.8899 0.713148 20.1493 0.962523 19.9187C2.2344 18.7424 3.66377 18.3524 5.25002 18.7493C6.39065 19.0349 7.20627 19.8624 8.1094 20.7781C9.58002 22.2706 11.2825 23.9981 15 23.9981C18.4931 23.9981 20.8425 22.4731 22.0475 19.4237C22.1725 19.1081 21.7869 18.8487 21.5375 19.0793C20.2656 20.2556 18.8363 20.6456 17.25 20.2487C16.1088 19.9637 15.2931 19.1356 14.39 18.2199C12.92 16.7274 11.2181 14.9999 7.50002 14.9999Z" fill="url(#paint0_linear_819_572)"/>
<defs>
<linearGradient id="paint0_linear_819_572" x1="13.6631" y1="5.14807" x2="16.0644" y2="22.8449" gradientUnits="userSpaceOnUse">
<stop stop-color="#070707"/>
</linearGradient>
</defs>
</svg>
