<svg width="99" height="120" viewBox="0 0 99 120" fill="none" xmlns="http://www.w3.org/2000/svg">
<path d="M20.1094 76.1562V54.5938H28.3125C29.4062 54.5938 30.8438 54.5156 32.625 54.3594C34.4062 54.2031 35.4688 54.0625 35.8125 53.9375L44.25 76.1562H41.8594C41.1406 76.1562 40.5781 76.3438 40.1719 76.7188C39.7656 77.0938 39.5625 77.5312 39.5625 78.0312C39.5625 78.5625 39.7656 79.0312 40.1719 79.4375C40.6094 79.8125 41.2031 80 41.9531 80H52.9688C54 80 54.75 79.8125 55.2188 79.4375C55.6875 79.0625 55.9219 78.5938 55.9219 78.0312C55.9219 77.5 55.6875 77.0625 55.2188 76.7188C54.7812 76.3438 54.0156 76.1562 52.9219 76.1562H48.9844L39.4219 52.9062C42.2031 51.875 44.5 50.3125 46.3125 48.2188C48.1562 46.0938 49.0781 43.3594 49.0781 40.0156C49.0781 35.9531 48.1406 32.8438 46.2656 30.6875C44.4219 28.5 41.8594 27.0312 38.5781 26.2812C35.2969 25.5 31.1406 25.1094 26.1094 25.1094H11.1094C10.3594 25.1094 9.76562 25.3125 9.32812 25.7188C8.92188 26.125 8.71875 26.6094 8.71875 27.1719C8.71875 27.7031 8.92188 28.1719 9.32812 28.5781C9.76562 28.9531 10.3438 29.1406 11.0625 29.1406H15.6094V76.1562H9.75C9 76.1562 8.42188 76.3438 8.01562 76.7188C7.60938 77.0938 7.40625 77.5469 7.40625 78.0781C7.40625 78.5781 7.60938 79.0312 8.01562 79.4375C8.45312 79.8125 9.04688 80 9.79688 80H28.5C29.25 80 29.8281 79.8125 30.2344 79.4375C30.6406 79.0312 30.8438 78.5781 30.8438 78.0781C30.8438 77.5469 30.6406 77.0938 30.2344 76.7188C29.8281 76.3438 29.2656 76.1562 28.5469 76.1562H20.1094ZM26.0625 29.1406C30.7812 29.1406 34.4375 29.4219 37.0312 29.9844C39.625 30.5469 41.5312 31.625 42.75 33.2188C43.9688 34.8125 44.5781 37.1875 44.5781 40.3438C44.5781 43.3125 43.7969 45.5781 42.2344 47.1406C40.6719 48.6719 38.5156 49.7031 35.7656 50.2344C33.0469 50.7344 29.5 50.9844 25.125 50.9844H20.1094V29.1406H26.0625Z" fill="black"/>
<path d="M60.1094 90.1562V68.5938H68.3125C69.4062 68.5938 70.8438 68.5156 72.625 68.3594C74.4062 68.2031 75.4688 68.0625 75.8125 67.9375L84.25 90.1562H81.8594C81.1406 90.1562 80.5781 90.3438 80.1719 90.7188C79.7656 91.0938 79.5625 91.5312 79.5625 92.0312C79.5625 92.5625 79.7656 93.0312 80.1719 93.4375C80.6094 93.8125 81.2031 94 81.9531 94H92.9688C94 94 94.75 93.8125 95.2188 93.4375C95.6875 93.0625 95.9219 92.5938 95.9219 92.0312C95.9219 91.5 95.6875 91.0625 95.2188 90.7188C94.7812 90.3438 94.0156 90.1562 92.9219 90.1562H88.9844L79.4219 66.9062C82.2031 65.875 84.5 64.3125 86.3125 62.2188C88.1562 60.0938 89.0781 57.3594 89.0781 54.0156C89.0781 49.9531 88.1406 46.8438 86.2656 44.6875C84.4219 42.5 81.8594 41.0312 78.5781 40.2812C75.2969 39.5 71.1406 39.1094 66.1094 39.1094H51.1094C50.3594 39.1094 49.7656 39.3125 49.3281 39.7188C48.9219 40.125 48.7188 40.6094 48.7188 41.1719C48.7188 41.7031 48.9219 42.1719 49.3281 42.5781C49.7656 42.9531 50.3438 43.1406 51.0625 43.1406H55.6094V90.1562H49.75C49 90.1562 48.4219 90.3438 48.0156 90.7188C47.6094 91.0938 47.4062 91.5469 47.4062 92.0781C47.4062 92.5781 47.6094 93.0312 48.0156 93.4375C48.4531 93.8125 49.0469 94 49.7969 94H68.5C69.25 94 69.8281 93.8125 70.2344 93.4375C70.6406 93.0312 70.8438 92.5781 70.8438 92.0781C70.8438 91.5469 70.6406 91.0938 70.2344 90.7188C69.8281 90.3438 69.2656 90.1562 68.5469 90.1562H60.1094ZM66.0625 43.1406C70.7812 43.1406 74.4375 43.4219 77.0312 43.9844C79.625 44.5469 81.5312 45.625 82.75 47.2188C83.9688 48.8125 84.5781 51.1875 84.5781 54.3438C84.5781 57.3125 83.7969 59.5781 82.2344 61.1406C80.6719 62.6719 78.5156 63.7031 75.7656 64.2344C73.0469 64.7344 69.5 64.9844 65.125 64.9844H60.1094V43.1406H66.0625Z" fill="black"/>
</svg>
