<svg width="156" height="224" viewBox="0 0 156 224" fill="none" xmlns="http://www.w3.org/2000/svg">
<path d="M29.3984 2.61336L32.4679 2.00022H34.9236H35.9468H36.5607H36.97C37.5839 2.00022 37.2013 2.01061 37.1746 2.0002C37.148 1.98979 41.0628 2.61342 41.2674 2.61334L42.9045 3.02212L44.5416 3.43088L46.1787 4.04402L47.2019 4.45278L48.6344 5.06592L49.8622 5.67906L50.8854 6.2922L51.9086 6.90534L52.5225 7.3141L53.1364 7.72286L53.5457 8.13162L54.3643 8.74476L54.9782 9.3579L56.206 10.3798L57.0246 11.1973L58.457 12.8324L59.0709 13.6499L59.6849 14.4674L60.2988 15.2849L61.1173 16.7156L61.5266 17.3287L61.9359 18.1463L62.5498 19.3725L63.1637 20.5988L63.7776 21.8251L64.3915 23.4601L64.8008 25.0952L65.2101 26.9346L65.6194 28.5696L66.0286 29.5915V30.8178L66.2333 32.0441C66.3015 32.5891 66.4379 33.72 66.4379 33.8835C66.4379 34.047 66.4379 37.4942 66.4379 39.1974L66.0286 43.285L65.2101 47.1682L64.1869 50.2339L61.5266 56.1609L58.457 60.6573L55.1828 64.3361L52.7271 66.1755L49.6576 68.4237L46.9973 69.8544L44.1323 70.8763L41.0628 71.4894V72.5113L41.2674 102.555V149.563L41.6767 149.358L47.2019 146.906L53.7503 144.453L61.322 142.205L69.7121 140.57L77.0791 139.752L83.0136 138.935L89.5621 136.891L97.543 132.395L104.091 126.263L105.319 124.833L103.477 124.015L100.817 122.38L98.3615 120.949L95.4966 118.497L93.0409 115.84L89.9713 111.957L87.7203 108.073L85.6739 103.168L84.4461 98.8763L83.8322 94.1756L83.6276 90.4968L83.8322 86.2048L84.4461 81.9128L86.0832 76.1902L88.5389 71.285L92.0177 65.7668L96.1105 61.6792L101.431 57.796L107.161 55.3434L112.482 53.9128L119.439 53.7084L124.965 54.3215L129.262 55.3434L133.15 56.9784L137.243 59.431L140.312 61.6792L143.382 64.7449L145.633 67.6062L147.27 70.0588L149.521 74.1464L151.158 78.0296L152.386 83.1391L152.795 87.6354L153 91.5187L152.795 94.7887L152.591 97.0369L151.977 99.8982L150.34 104.803L148.907 108.073L146.861 111.752L144.61 115.022L142.563 117.066C141.881 117.611 140.517 118.742 140.517 118.906C140.517 119.069 138.198 120.881 137.038 121.767L133.355 123.606L130.285 125.037L126.602 126.059L121.69 126.876L119.03 130.76L114.119 136.687L110.435 140.365L106.547 143.636L102.045 146.497L96.5198 149.358L90.5853 151.402L86.0832 152.628L80.9673 153.446L73.6003 154.263L66.8472 155.285L62.1405 156.307L56.6153 158.147L53.5457 159.373L57.4338 163.256L60.5034 167.548L62.9591 172.249L64.5962 176.745L65.4147 179.811L66.2333 184.103V188.395V192.482L65.4147 197.183L63.7776 202.088L61.5266 207.402L58.0477 211.694L54.1596 215.373L48.4297 218.643L42.0859 220.687L36.5607 221.3H33.6958L31.4447 221.096L28.5798 220.482L23.8731 218.847L20.1896 216.804L16.3015 213.942L13.6412 211.081L10.1623 206.789L7.29741 201.475L4.84175 194.935L4.02319 189.621V186.76V180.628L4.84175 175.11L6.47885 170.614L9.13915 165.709L12.4134 161.212L17.734 156.92L23.2592 154.059L26.9427 153.037L28.1705 152.833V151.606L27.9659 71.6938L25.7149 71.0807L21.4175 69.4456L17.5293 67.1974L14.0505 64.3361L10.1623 60.0441L7.50205 55.5478L5.25102 50.6427L3.81855 45.3288L3 39.6062L3.40928 33.2704L4.43247 27.9565L6.88813 20.5988L9.95771 15.2849L15.0737 9.56228L20.3943 5.67906L27.1473 2.81774L29.3984 2.61336ZM30.2169 17.7375L31.854 17.1243L33.9004 16.7156L35.3329 16.5112H36.5607H37.1746L37.9932 16.7156L39.0164 17.1243L40.4488 17.9418L41.6767 18.7594L42.9045 19.5769L44.1323 20.8032L44.9509 21.6207L45.7694 22.6426L46.588 23.6645L47.4065 24.8908L48.0205 25.9127L48.4297 26.9346L48.839 27.9565L49.2483 29.3871L49.6576 30.409L49.8622 31.6353L50.0668 32.8616L50.2715 34.0879L50.4761 35.1098V35.7229V36.7448V39.1974L50.0668 41.4455L49.2483 44.3069L48.4297 46.555L47.4065 48.5988L45.9741 50.6426L44.337 52.6864L43.1091 54.1171L41.2674 55.3434L39.0164 56.5697L36.5607 57.5916L34.9236 58.0003H33.2865L31.6494 57.5916L29.8076 56.9784L28.5798 56.1609L26.9427 55.139L25.7149 54.1171L24.487 52.8908L23.6685 51.8689L22.8499 50.847L22.0314 49.6207L21.6221 49.0076L21.0082 47.7813L19.985 45.3288L19.3711 43.285L18.9618 41.4455L18.7572 39.8105V37.9711V36.1317L18.9618 33.8835L19.3711 31.6353L20.1896 29.1827L21.2128 26.9346L22.4407 24.8908L23.2592 23.6645L24.2824 22.2338L25.7149 20.8032L27.5566 19.1681L30.2169 17.7375ZM116.779 68.6281H117.393H118.211H119.235L120.053 68.8325L121.076 69.0369L122.714 69.65L125.169 70.8763L127.216 72.1026L129.671 74.3507L131.513 76.3945L132.945 78.6427L133.969 80.6865L134.583 82.3216L135.196 83.9566L135.606 85.796L136.015 88.0442L136.22 90.4968L136.015 92.9493L135.81 94.7887L135.401 96.8325L134.378 99.8982L133.355 102.146L131.513 104.803L129.467 107.256L127.011 109.095L123.941 110.935L121.895 111.752L119.849 112.365L117.802 112.161L115.347 111.752L113.709 111.139L111.868 110.322L110.231 109.504L108.593 108.482L107.161 107.256L105.933 105.825L104.705 104.395L103.682 102.76L102.659 101.329L101.84 99.6939L101.022 97.2413L100.408 94.9931L99.9986 91.9274V89.2705L100.203 86.0004L100.817 83.7522L101.84 80.6865L103.273 77.8252L104.705 75.7814L106.956 73.3288L109.207 71.6938L111.663 70.2631L113.709 69.4456L115.551 68.8325L116.779 68.6281ZM30.8308 166.322H31.854L33.6958 166.526L35.9468 166.935L37.9932 167.752L39.8349 168.774L41.0628 169.387C41.472 169.728 42.3315 170.45 42.4952 170.614C42.6589 170.777 43.5184 171.499 43.9277 171.84L45.1555 173.271C45.4966 173.748 46.2196 174.742 46.3834 174.906C46.5471 175.069 47.2701 176.2 47.6112 176.745L48.2251 178.176L49.2483 180.424L49.8622 182.468L50.4761 185.738L50.6808 188.599L50.2715 192.891L49.2483 196.161L46.9973 200.658L45.3602 202.906L43.5184 204.541L41.0628 205.971L39.221 206.789H38.1978H36.7653L34.5143 206.38L31.4447 205.358L29.1937 204.132L27.352 202.701L25.3056 200.862L23.8731 198.818L22.6453 197.183L21.4175 194.935L20.5989 192.482L19.7804 189.825L19.3711 187.577L19.1664 185.738V182.468L19.5757 180.22L20.3943 177.358L21.4175 175.11L22.6453 173.066L24.8963 170.205L26.1241 168.979L27.9659 167.752L29.3984 166.935L30.8308 166.322Z" stroke="black" stroke-opacity="0.1" stroke-width="4"/>
</svg>
