<svg width="372" height="541" viewBox="0 0 372 541" fill="none" xmlns="http://www.w3.org/2000/svg">
<path d="M67 3.50006L74.5 2.00006H80.5H83H84.5H85.5C87 2.00006 86.0652 2.02548 86 2C85.9348 1.97452 95.5 3.50019 96 3.5L100 4.50006L104 5.50006L108 7.00006L110.5 8.00006L114 9.50006L117 11.0001L119.5 12.5001L122 14.0001L123.5 15.0001L125 16.0001L126 17.0001L128 18.5001L129.5 20.0001L132.5 22.5001L134.5 24.5001L138 28.5001L139.5 30.5001L141 32.5001L142.5 34.5001L144.5 38.0001L145.5 39.5001L146.5 41.5001L148 44.5001L149.5 47.5001L151 50.5001L152.5 54.5001L153.5 58.5001L154.5 63.0001L155.5 67.0001L156.5 69.5001V72.5001L157 75.5001C157.167 76.8334 157.5 79.6001 157.5 80.0001C157.5 80.4001 157.5 88.8334 157.5 93.0001L156.5 103L154.5 112.5L152 120L145.5 134.5L138 145.5L130 154.5L124 159L116.5 164.5L110 168L103 170.5L95.5 172V174.5L96 248V363L97 362.5L110.5 356.5L126.5 350.5L145 345L165.5 341L183.5 339L198 337L214 332L233.5 321L249.5 306L252.5 302.5L248 300.5L241.5 296.5L235.5 293L228.5 287L222.5 280.5L215 271L209.5 261.5L204.5 249.5L201.5 239L200 227.5L199.5 218.5L200 208L201.5 197.5L205.5 183.5L211.5 171.5L220 158L230 148L243 138.5L257 132.5L270 129L287 128.5L300.5 130L311 132.5L320.5 136.5L330.5 142.5L338 148L345.5 155.5L351 162.5L355 168.5L360.5 178.5L364.5 188L367.5 200.5L368.5 211.5L369 221L368.5 229L368 234.5L366.5 241.5L362.5 253.5L359 261.5L354 270.5L348.5 278.5L343.5 283.5C341.833 284.833 338.5 287.6 338.5 288C338.5 288.4 332.833 292.833 330 295L321 299.5L313.5 303L304.5 305.5L292.5 307.5L286 317L274 331.5L265 340.5L255.5 348.5L244.5 355.5L231 362.5L216.5 367.5L205.5 370.5L193 372.5L175 374.5L158.5 377L147 379.5L133.5 384L126 387L135.5 396.5L143 407L149 418.5L153 429.5L155 437L157 447.5V458V468L155 479.5L151 491.5L145.5 504.5L137 515L127.5 524L113.5 532L98 537L84.5 538.5H77.5L72 538L65 536.5L53.5 532.5L44.5 527.5L35 520.5L28.5 513.5L20 503L13 490L7 474L5 461V454V439L7 425.5L11 414.5L17.5 402.5L25.5 391.5L38.5 381L52 374L61 371.5L64 371V368L63.5 172.5L58 171L47.5 167L38 161.5L29.5 154.5L20 144L13.5 133L8 121L4.5 108L2.5 94.0001L3.5 78.5001L6 65.5001L12 47.5001L19.5 34.5001L32 20.5001L45 11.0001L61.5 4.00006L67 3.50006ZM69 40.5L73 39L78 38L81.5 37.5H84.5H86L88 38L90.5 39L94 41L97 43L100 45L103 48L105 50L107 52.5L109 55L111 58L112.5 60.5L113.5 63L114.5 65.5L115.5 69L116.5 71.5L117 74.5L117.5 77.5L118 80.5L118.5 83V84.5V87V93L117.5 98.5L115.5 105.5L113.5 111L111 116L107.5 121L103.5 126L100.5 129.5L96 132.5L90.5 135.5L84.5 138L80.5 139H76.5L72.5 138L68 136.5L65 134.5L61 132L58 129.5L55 126.5L53 124L51 121.5L49 118.5L48 117L46.5 114L44 108L42.5 103L41.5 98.5L41 94.5V90V85.5L41.5 80L42.5 74.5L44.5 68.5L47 63L50 58L52 55L54.5 51.5L58 48L62.5 44L69 40.5ZM280.5 165H282H284H286.5L288.5 165.5L291 166L295 167.5L301 170.5L306 173.5L312 179L316.5 184L320 189.5L322.5 194.5L324 198.5L325.5 202.5L326.5 207L327.5 212.5L328 218.5L327.5 224.5L327 229L326 234L323.5 241.5L321 247L316.5 253.5L311.5 259.5L305.5 264L298 268.5L293 270.5L288 272L283 271.5L277 270.5L273 269L268.5 267L264.5 265L260.5 262.5L257 259.5L254 256L251 252.5L248.5 248.5L246 245L244 241L242 235L240.5 229.5L239.5 222V215.5L240 207.5L241.5 202L244 194.5L247.5 187.5L251 182.5L256.5 176.5L262 172.5L268 169L273 167L277.5 165.5L280.5 165ZM70.5 404H73L77.5 404.5L83 405.5L88 407.5L92.5 410L95.5 411.5C96.5 412.333 98.6 414.1 99 414.5C99.4 414.9 101.5 416.667 102.5 417.5L105.5 421C106.333 422.167 108.1 424.6 108.5 425C108.9 425.4 110.667 428.167 111.5 429.5L113 433L115.5 438.5L117 443.5L118.5 451.5L119 458.5L118 469L115.5 477L110 488L106 493.5L101.5 497.5L95.5 501L91 503H88.5H85L79.5 502L72 499.5L66.5 496.5L62 493L57 488.5L53.5 483.5L50.5 479.5L47.5 474L45.5 468L43.5 461.5L42.5 456L42 451.5V443.5L43 438L45 431L47.5 425.5L50.5 420.5L56 413.5L59 410.5L63.5 407.5L67 405.5L70.5 404Z" stroke="black" stroke-width="4"/>
</svg>
